<svg width="200" height="188" viewBox="0 0 200 188" fill="none" xmlns="http://www.w3.org/2000/svg">
<g id="Vector 2" filter="url(#filter0_d_196_44)">
<path d="M8.13134 14.5419C6.08117 13.9673 3.33534 12.5808 1.10119 12.4562C-0.25672 11.4404 -1.17046 9.78996 -2.50176 8.7791C-3.37831 8.11353 -4.41531 7.67488 -5.203 6.89235C-6.29844 5.80409 -6.74656 4.75212 -8.09177 3.82334C-9.95023 2.54018 -14.0215 1.80286 -15.9808 3.19687C-21.4479 7.08652 -23.9501 16.7904 -24.6217 23.0177C-26.0437 36.2022 -24.4359 49.3842 -24.3428 62.5959C-24.2579 74.6339 -26.3186 86.6306 -25.6019 98.6541C-25.2217 105.032 -24.6848 111.35 -24.6709 117.746C-24.6539 125.534 -25.5685 133.253 -25.8607 141.025C-26.1771 149.437 -25.8202 157.863 -25.0459 166.235C-24.5363 171.746 -23.6974 177.257 -23.5155 182.795C-23.3942 186.489 -23.3063 190.392 -21.9043 193.877C-20.8619 196.469 -18.4102 196.741 -15.9509 196.724C-12.9149 196.702 -9.91581 196.32 -6.87459 196.299C-4.10411 196.279 -1.2583 196.768 1.48989 196.581C3.88492 196.418 6.28428 195.885 8.69253 195.868C12.7191 195.84 16.7996 196.697 20.7107 197.569C29.8864 199.614 38.7583 200.963 48.1914 200.966C54.0376 200.968 59.8918 201.498 65.701 202.106C71.0416 202.666 76.351 202.573 81.7122 202.535C93.4078 202.453 105.079 201.779 116.768 201.566C129.15 201.34 141.44 199.01 153.82 198.496C164.151 198.068 174.268 199.131 184.554 197.297C187.131 196.837 189.603 195.806 192.186 195.337C193.447 195.108 194.139 195.665 194.129 194.16C194.093 189.037 192.129 185.5 189.738 181.352C188.756 179.65 187.444 178.338 186.478 176.52C184.924 173.596 181.692 171.714 179.815 169.004C177.042 165.002 173.858 161.119 169.864 158.302C167.59 156.698 163.726 156.213 161.074 157.02C158.852 157.695 157.204 156.77 155.155 156.239C151.791 155.367 147.67 151.629 145.962 148.62C144.708 146.41 143.438 144.273 142.788 141.802C142.136 139.318 141.28 137.041 140.587 134.595C139.505 130.776 137.906 126.855 136.286 123.251C135.589 121.7 133.778 120.678 132.952 119.122C132.259 117.819 131.392 116.625 130.675 115.347C129.202 112.719 131.021 109.619 129.363 107.151C127.423 104.264 125.25 101.619 123.212 98.8089C120.637 95.2592 118.332 91.5247 116.046 87.7457C113.34 83.2745 111.067 78.6197 108.523 74.1373C106.455 70.4931 104.5 67.1297 101.98 63.9122C99.5229 60.7754 95.8704 59.6175 92.538 57.6596C91.1022 56.816 89.5443 56.2382 88.1413 55.3435C86.0738 54.0249 84.2692 52.0383 81.9395 51.1543C80.2035 50.4957 78.5561 48.8454 76.9782 47.8391C75.3913 46.8271 73.2659 46.5074 71.4118 46.2334C67.9453 45.721 64.4186 45.2401 61.0063 44.5012C56.7717 43.5844 52.3336 43.6786 48.2637 41.7224C45.9529 40.6116 43.9252 39.3406 41.7863 37.9765C40.3352 37.051 38.0929 35.1288 37.0976 33.7767C35.9878 32.2691 34.9859 30.6829 33.6618 29.3675C32.3443 28.0586 30.7304 26.8327 29.5325 25.4446C27.4437 23.024 24.6024 20.5435 21.7616 18.9796C20.6683 18.3777 19.2179 18.5243 17.9949 18.4645C17.2873 18.4299 16.9003 17.9493 16.1214 18.1968C15.4225 18.4189 14.4221 18.7345 13.6938 18.4145C11.6238 17.505 10.193 15.1196 8.13134 14.5419Z" fill="#F3EFE2"/>
<path d="M0.749625 12.4474C3.04162 12.4312 5.97225 13.9368 8.13134 14.5419C10.193 15.1196 11.6238 17.505 13.6938 18.4145C14.4221 18.7345 15.4225 18.4189 16.1214 18.1968C16.9003 17.9493 17.2873 18.4299 17.9949 18.4645C19.2179 18.5243 20.6683 18.3777 21.7616 18.9796C24.6024 20.5435 27.4437 23.024 29.5325 25.4446C30.7304 26.8327 32.3443 28.0586 33.6618 29.3675C34.9859 30.6829 35.9878 32.2691 37.0976 33.7767C38.0929 35.1288 40.3352 37.051 41.7863 37.9765C43.9252 39.3406 45.9529 40.6116 48.2637 41.7223C52.3336 43.6786 56.7717 43.5844 61.0063 44.5012C64.4186 45.2401 67.9453 45.721 71.4118 46.2334C73.2659 46.5074 75.3913 46.8271 76.9782 47.8391C78.556 48.8454 80.2035 50.4957 81.9395 51.1543C84.2692 52.0383 86.0738 54.0249 88.1413 55.3435C89.5443 56.2382 91.1022 56.816 92.538 57.6596C95.8704 59.6175 99.5229 60.7754 101.98 63.9122C104.5 67.1297 106.455 70.4931 108.523 74.1373C111.067 78.6197 113.34 83.2745 116.046 87.7457C118.332 91.5247 120.637 95.2592 123.212 98.8089C125.25 101.619 127.423 104.264 129.363 107.151C131.021 109.619 129.202 112.719 130.675 115.347C131.392 116.625 132.259 117.819 132.952 119.122C133.778 120.678 135.589 121.7 136.286 123.251C137.906 126.855 139.505 130.776 140.587 134.595C141.28 137.041 142.136 139.318 142.788 141.802C143.438 144.273 144.708 146.41 145.962 148.62C147.67 151.629 151.791 155.367 155.155 156.239C157.204 156.77 158.852 157.695 161.074 157.02C163.726 156.213 167.59 156.698 169.864 158.302C173.858 161.119 177.042 165.002 179.815 169.004C181.692 171.714 184.924 173.596 186.478 176.52C187.444 178.338 188.756 179.65 189.738 181.352C192.129 185.5 194.093 189.037 194.129 194.16C194.139 195.665 193.447 195.108 192.186 195.337C189.603 195.806 187.131 196.837 184.554 197.297C174.268 199.131 164.151 198.068 153.82 198.496C141.44 199.01 129.15 201.34 116.768 201.566C105.079 201.779 93.4078 202.453 81.7122 202.535C76.351 202.573 71.0416 202.666 65.701 202.106C59.8918 201.498 54.0376 200.968 48.1914 200.966C38.7583 200.963 29.8863 199.614 20.7107 197.569C16.7996 196.697 12.7191 195.84 8.69253 195.868C6.28428 195.885 3.88492 196.418 1.48989 196.581C-1.2583 196.768 -4.10411 196.279 -6.87459 196.299C-9.91581 196.32 -12.9149 196.702 -15.9509 196.724C-18.4102 196.741 -20.8619 196.469 -21.9043 193.877C-23.3063 190.392 -23.3942 186.489 -23.5155 182.795C-23.6974 177.257 -24.5363 171.746 -25.0459 166.235C-25.8202 157.863 -26.1771 149.437 -25.8607 141.025C-25.5685 133.253 -24.6539 125.534 -24.6709 117.746C-24.6848 111.35 -25.2217 105.032 -25.6019 98.6541C-26.3186 86.6306 -24.2579 74.6339 -24.3428 62.5959C-24.4359 49.3842 -26.0437 36.2022 -24.6217 23.0177C-23.9501 16.7904 -21.4479 7.08652 -15.9808 3.19687C-14.0215 1.80286 -9.95023 2.54018 -8.09177 3.82334C-6.74656 4.75212 -6.29844 5.80409 -5.203 6.89235C-4.41531 7.67488 -3.37831 8.11353 -2.50176 8.7791C-1.00546 9.91525 -0.0366354 11.8593 1.6282 12.8023C2.37664 13.2262 4.33911 14.9473 2.55677 14.6012" stroke="#A6A5AC" stroke-width="3" stroke-linecap="round"/>
</g>
<defs>
<filter id="filter0_d_196_44" x="-31.4756" y="0.944183" width="231.104" height="211.121" filterUnits="userSpaceOnUse" color-interpolation-filters="sRGB">
<feFlood flood-opacity="0" result="BackgroundImageFix"/>
<feColorMatrix in="SourceAlpha" type="matrix" values="0 0 0 0 0 0 0 0 0 0 0 0 0 0 0 0 0 0 127 0" result="hardAlpha"/>
<feOffset dy="4"/>
<feGaussianBlur stdDeviation="2"/>
<feComposite in2="hardAlpha" operator="out"/>
<feColorMatrix type="matrix" values="0 0 0 0 0 0 0 0 0 0 0 0 0 0 0 0 0 0 0.25 0"/>
<feBlend mode="normal" in2="BackgroundImageFix" result="effect1_dropShadow_196_44"/>
<feBlend mode="normal" in="SourceGraphic" in2="effect1_dropShadow_196_44" result="shape"/>
</filter>
</defs>
</svg>
