<svg width="204" height="188" viewBox="0 0 204 188" fill="none" xmlns="http://www.w3.org/2000/svg">
<g id="Vector 1" filter="url(#filter0_d_196_45)">
<path d="M1.13281 3.03372C1.13281 4.8863 1.40221 9.75995 3.14176 10.5337C6.69438 12.114 10.8308 12.7013 13.6887 15.3015C15.637 17.0741 21.1405 16.6029 23.2312 17.0337C25.8607 17.5756 28.3772 24.8958 30.7648 26.0337C35.8179 28.4419 35.471 28.6776 38.2984 31.5809C39.8051 33.1281 41.2572 34.2136 42.3163 35.5337C43.5379 37.0564 47.784 39.5401 49.3476 40.5337C53.039 42.8794 53.5342 41.3467 57.8856 42.7292C64.7984 44.9256 72.6572 43.665 78.9796 47.5337C82.26 49.5411 84.9206 51.9399 88.5221 53.4111C92.8915 55.196 96.7154 57.2423 100.576 60.0337C105.963 63.9292 105.897 66.7436 110.118 71.5337C113.62 75.5072 113.717 82.4054 116.145 87.0337C117.375 89.3776 121.566 93.8266 123.176 96.0337C125.62 99.382 127.715 100.422 128.701 104.534C128.942 105.538 130.71 110.009 130.71 111.034C130.71 112.418 136.288 121.239 136.788 122.534C138.127 125.998 140.981 134.315 142.764 137.534C145.767 142.958 147.821 147.066 150.799 152.534C153.233 157.001 164.04 154.534 168.378 157.034C177.92 162.534 196.503 190.534 197.508 186.534" stroke="#A6A5AC" stroke-width="5" stroke-linecap="round"/>
</g>
<defs>
<filter id="filter0_d_196_45" x="-5.36719" y="0.533722" width="209.375" height="196.889" filterUnits="userSpaceOnUse" color-interpolation-filters="sRGB">
<feFlood flood-opacity="0" result="BackgroundImageFix"/>
<feColorMatrix in="SourceAlpha" type="matrix" values="0 0 0 0 0 0 0 0 0 0 0 0 0 0 0 0 0 0 127 0" result="hardAlpha"/>
<feOffset dy="4"/>
<feGaussianBlur stdDeviation="2"/>
<feComposite in2="hardAlpha" operator="out"/>
<feColorMatrix type="matrix" values="0 0 0 0 0 0 0 0 0 0 0 0 0 0 0 0 0 0 1 0"/>
<feBlend mode="normal" in2="BackgroundImageFix" result="effect1_dropShadow_196_45"/>
<feBlend mode="normal" in="SourceGraphic" in2="effect1_dropShadow_196_45" result="shape"/>
</filter>
</defs>
</svg>
